<svg xmlns="http://www.w3.org/2000/svg" xmlns:xlink="http://www.w3.org/1999/xlink" viewBox="0 0 233.57 172.69"><defs><style>.cls-1{stroke:#f495be;fill:url(#linear-gradient);}.cls-1,.cls-2,.cls-3,.cls-4,.cls-5,.cls-6,.cls-7{stroke-miterlimit:10;}.cls-1,.cls-2{stroke-width:2px;}.cls-2{fill:none;stroke:#fff;}.cls-3,.cls-4,.cls-5,.cls-6,.cls-7{fill:#fff;stroke-width:3px;}.cls-3{stroke:url(#linear-gradient-2);}.cls-4{stroke:url(#linear-gradient-3);}.cls-5{stroke:url(#linear-gradient-4);}.cls-6{stroke:url(#linear-gradient-5);}.cls-7{stroke:url(#linear-gradient-6);}.cls-8{fill:#231f20;}.cls-9{fill:#f49ac0;}</style><linearGradient id="linear-gradient" x1="86.85" y1="43.84" x2="153.93" y2="43.84" gradientUnits="userSpaceOnUse"><stop offset="0" stop-color="#f9c5dc"/><stop offset="0.04" stop-color="#f8b7d3"/><stop offset="0.12" stop-color="#f6a4c7"/><stop offset="0.2" stop-color="#f499c0"/><stop offset="0.28" stop-color="#f495be"/><stop offset="0.67" stop-color="#ef72ac"/><stop offset="0.89" stop-color="#e572a9"/><stop offset="1" stop-color="#c14d84"/></linearGradient><linearGradient id="linear-gradient-2" x1="20.63" y1="140.83" x2="216.89" y2="140.83" xlink:href="#linear-gradient"/><linearGradient id="linear-gradient-3" x1="201.6" y1="109.98" x2="210.81" y2="109.98" xlink:href="#linear-gradient"/><linearGradient id="linear-gradient-4" x1="18.56" y1="108.21" x2="26.27" y2="108.21" xlink:href="#linear-gradient"/><linearGradient id="linear-gradient-5" x1="193.77" y1="109.93" x2="236.53" y2="109.93" xlink:href="#linear-gradient"/><linearGradient id="linear-gradient-6" x1="0" y1="113.7" x2="24.3" y2="113.7" xlink:href="#linear-gradient"/></defs><g id="Layer_7" data-name="Layer 7"><path class="cls-1" d="M152.68,40.35s.13-2-.22-1.51c0,0,.74-5-4.81-8.2a26.78,26.78,0,0,0-3.45-3,11.74,11.74,0,0,0-2.66-4c-6.24-6.58-12.8-4.78-12.8-4.78a21.28,21.28,0,0,0-4.28-2.63l-6.23-5.46a25.72,25.72,0,0,0-3.32-3.19h0a41.45,41.45,0,0,0-3.61-2.66h0c.48.5.93,1,1.37,1.48h0l-.12,1.17A19,19,0,0,0,111.29,5a20.41,20.41,0,0,1,1,5.16h0l-.5,4.61a8.83,8.83,0,0,1-.74,1.74s-1.13.26-1.13,2.43c0,0,.7,2.08,1.18,2.3l-2.15.58-1.76.81a7.16,7.16,0,0,1,1.7.23l-.51.37-1.19-.6a11.54,11.54,0,0,0-2.63.26l4.39-1.07a8.23,8.23,0,0,0-2.48-1,8.17,8.17,0,0,1-2.33-1s-.74-.2-1.15,1l-.48,1.42-1.85,1.58,3-.72c-.44.13-.71.23-.71.23a11.21,11.21,0,0,1-2.24.49h0c-1.8.28-4,.55-4,.55-3.73.69-2.34,2.43-2.34,2.43a20.44,20.44,0,0,1,2.34,2.94,7.24,7.24,0,0,0-3.21,0c-.87.61.35,2.52.35,2.52-1.39-1.74-3,0-3,0-.08,1.47,1.73,4.85,1.73,4.85-3.55.26-3.63,4.07-3.63,4.07a4.58,4.58,0,0,0-1.6,2.61,3.25,3.25,0,0,0,.47,2.34c-1,1-1,1.12-1,1.12L87.43,49h-.1a.21.21,0,0,0,.16.19L91,59.9c3.13,16.47,4.86,15.43,4.86,15.43,0,.43,1,1.26,1,1.26,0,.2.23.45.55.7h0a12,12,0,0,0,2.06,1.18,5.34,5.34,0,0,0,1.69.91c0,.1.33.27.74.44.89.37,2.25.8,2.25.8a1.86,1.86,0,0,0,.66.34,19.53,19.53,0,0,0,2.46.57,12.29,12.29,0,0,0,2.86.45,10.82,10.82,0,0,0,4.81.46,5.14,5.14,0,0,0,1.1.24,9,9,0,0,0,2.67-.11,9,9,0,0,0,1.69.17,34,34,0,0,0,5-.37c1.62-.22,2.83-.45,2.83-.45.4-.06.84-.14,1.3-.23,1.2-.24,2.5-.57,3.54-.85s2-.55,2-.55l.31-.12c1.27-.52,3.19-1.57,3.19-1.57a4.7,4.7,0,0,0,2.09-1.72,1.45,1.45,0,0,1,.66-.68,2.44,2.44,0,0,0,1.27-1.72,1.62,1.62,0,0,1,.37-.71,12.6,12.6,0,0,0,2.57-5l5.78-17.88a2.11,2.11,0,0,0,.29-1.9c.61-1.25,0-1.48,0-1.48.87-2.14,0-2.67,0-2.67,1.45-.25,2.06-2.29,2.06-2.29C154.63,41.17,152.68,40.35,152.68,40.35Zm-26.92-8.44-.48-.25.57,0Z" transform="translate(-2.96)"/><path class="cls-2" d="M111.27,5.16A35.86,35.86,0,0,1,118.2,11l6.24,5.46s5.2,2.35,6,4.82l.78,2.47s1.56,3.9-4.16,8.06c0,0-9.23.13-10.53,2,0,0-6-.91-7.67,1.3,0,0-6.5-.13-6.63,1.82,0,0-5.48-3.17-8.32-1.17,0,0,22.88-10.79,23.4-10,0,0,3.38-1.95,3.51-.26L122.49,24S125.27,20.12,111.27,5.16Z" transform="translate(-2.96)"/><line class="cls-2" x1="108.57" y1="23.5" x2="114.33" y2="25.71"/><path class="cls-2" d="M92.54,37.32s1.3,2.52,3,1.91c0,0,1.73-.26,2.25.78,0,0,3.38.35,5.11,1.91l-5.2.86" transform="translate(-2.96)"/><path class="cls-2" d="M102.94,41.92s15.35-5.55,18.29-5.64c0,0,16.39-.6,15.35-8.93,0,0-.47-6.67-5.87-5.15l-2-3.1s6.56-1.8,12.8,4.79c0,0,5.55,5.2,1.56,8.92,0,0-3.55,4.82-4.6,5.1,0,0-2.68.89-2.68,2.14,0,0-7.32,3.6-12.07,3.86l-10.24,1.91s-5.26-2.26-6.73.52c0,0-1.22,3.38-.43,5.46,0,0,1,2.77,5.8.69l.51-1" transform="translate(-2.96)"/><path class="cls-2" d="M108.41,49.89A4.31,4.31,0,0,1,111.53,51a10.32,10.32,0,0,0,7.71.35,40.35,40.35,0,0,0,5.8-2.79,9.59,9.59,0,0,0,2.14-1.67c.11-.13.21-.27.3-.4" transform="translate(-2.96)"/><path class="cls-2" d="M106.43,47.47a68.3,68.3,0,0,1-8.69-2.35s-5.46-3.38-7.45-1.47" transform="translate(-2.96)"/><path class="cls-2" d="M87.3,44a7,7,0,0,0,3.6.85s4.46.38,4.64.12" transform="translate(-2.96)"/><path class="cls-2" d="M95.58,44a21,21,0,0,1-.44,3.89s1.91,1,4.34,2.16a19.23,19.23,0,0,1,4.5,0,9.15,9.15,0,0,0,2.11.69" transform="translate(-2.96)"/><path class="cls-2" d="M129.51,50.75l-2,.91a16.72,16.72,0,0,1-6.87,1.61c-.52,0-2.41-1.61-2.41-1.61" transform="translate(-2.96)"/><path class="cls-2" d="M143.83,31.93s-1,5.44,1.22,8.12c0,0-11.83,6.66-14.56,6.46A54.57,54.57,0,0,1,125,48.58" transform="translate(-2.96)"/><path class="cls-2" d="M125.39,48.36s3.36.82,4.49,2.81a5.69,5.69,0,0,1,2,1.09,1.77,1.77,0,0,0,.87.57,7.74,7.74,0,0,1,1.09.44s.39.67,1.54-.6a5,5,0,0,1,3.4-1.43,23.6,23.6,0,0,0,10.81-4.73,8.71,8.71,0,0,0,3-5.94s.13-2-.22-1.51c0,0,.74-5-4.81-8.2a26.78,26.78,0,0,0-3.45-3" transform="translate(-2.96)"/><path class="cls-2" d="M107.21,81.75s-2.73-.46-3.12-.91c0,0-2.92-.91-3-1.24a5.22,5.22,0,0,1-1.69-.91s-2.6-1.17-2.6-1.88c0,0-1-.83-1-1.26,0,0-1.74,1-4.86-15.43L86.82,47.46s0-.17,1-1.12c0,0-1.73-2.34,1.13-4.94,0,0,.09-3.82,3.64-4.08,0,0-1.82-3.38-1.73-4.85,0,0,1.56-1.74,3,0,0,0-1.22-1.91-.35-2.52a7.24,7.24,0,0,1,3.21,0A20.44,20.44,0,0,0,94.28,27s-1.39-1.74,2.34-2.43c0,0,5.72-.69,6.24-1a12.39,12.39,0,0,1,4.28-.73,6.67,6.67,0,0,1,3,.73l3.25.67s-4.9.2-.48-8c0,0,2.08-4.33-1.64-11,0,0,2.42,6.76-.26,11.53,0,0-1.13.26-1.13,2.43,0,0,.7,2.08,1.18,2.3L108.9,22l-1.76.81" transform="translate(-2.96)"/><path class="cls-2" d="M151.58,45.07s.87.53,0,2.68c0,0,.61.23,0,1.48a2.15,2.15,0,0,1-.29,1.9L145.51,69a12.54,12.54,0,0,1-2.58,5,1.77,1.77,0,0,0-.36.71,2.47,2.47,0,0,1-1.27,1.72,1.45,1.45,0,0,0-.66.68,4.77,4.77,0,0,1-2.09,1.72,35.21,35.21,0,0,1-3.5,1.69,63.19,63.19,0,0,1-6.84,1.63" transform="translate(-2.96)"/><path class="cls-2" d="M108.9,22a8.08,8.08,0,0,0-2.47-1,8.21,8.21,0,0,1-2.34-1s-.73-.19-1.15,1l-.47,1.43L100.62,24" transform="translate(-2.96)"/><path class="cls-2" d="M151.29,51.13l-.84-1a1.15,1.15,0,0,0-.59,1.24s.91.52-.52,1.1a7.28,7.28,0,0,1-1.43.46s-1,1.56-3.83,1.3c0,0,.19,1.56-3.12.52,0,0-.72.13,0,1.1,0,0,.39,1.37-3.19,0,0,0-1.3-.19-1.11,1,0,0,.07,1.76-2,0,0,0-2.28-.78-2.6.78,0,0-.39,1.69-3-.58,0,0-1.17-1.17-2.47,1.62,0,0-.58.39-2.73-1.49a2.76,2.76,0,0,0-2,1.82s-.42.13-2.52-1.11c0,0-1.38-.19-2.1,1.82,0,0-1.49.07-2.4-2a3.08,3.08,0,0,0-3.36.84s-.48.2-1.59-1.1a2,2,0,0,0-2.92.32s-1.33.39-.93-1.17a3.44,3.44,0,0,0-3.88.39s-1-.13,0-1.3a1.54,1.54,0,0,0-2.67-.06s-1.39.58-1.18-1c0,0-1.68-1.43-2.33-.2,0,0-1.43.25-1.36-1.17,0,0-.52-1.32-3.25-.71,0,0-1,.13,0-.85a1,1,0,0,0,.65-1s-.37-.53-1.78.51c0,0-2-.33,0-1.37,0,0-.11-1.61-1.35-.66,0,0-1.55.53-1.64,0" transform="translate(-2.96)"/><line class="cls-2" x1="147.15" y1="51.94" x2="140.54" y2="73.27"/><line class="cls-2" x1="144.95" y1="52.95" x2="138.34" y2="76.42"/><line class="cls-2" x1="141.11" y1="54.25" x2="135.59" y2="78.82"/><line class="cls-2" x1="137.91" y1="56.25" x2="132.39" y2="80.39"/><line class="cls-2" x1="133.66" y1="57.26" x2="130.1" y2="81.07"/><path class="cls-2" d="M106.09,81.3s7.59,3.34,23.42.61l2.71-24.65" transform="translate(-2.96)"/><line class="cls-2" x1="125.38" y1="56.87" x2="122.43" y2="82.59"/><line class="cls-2" x1="120.9" y1="57.24" x2="120.25" y2="82.84"/><line class="cls-2" x1="116.43" y1="57.95" x2="117.39" y2="82.97"/><line class="cls-2" x1="114.33" y1="59.77" x2="114.98" y2="82.84"/><line class="cls-2" x1="111.92" y1="57.76" x2="113.03" y2="82.97"/><line class="cls-2" x1="107.4" y1="57.95" x2="109.68" y2="82.59"/><line class="cls-2" x1="103.13" y1="57.55" x2="105.94" y2="82.09"/><line class="cls-2" x1="98.89" y1="56.87" x2="101.8" y2="81.18"/><path class="cls-2" d="M98.36,54.64s-.64,1.64,3.49,25.4" transform="translate(-2.96)"/><line class="cls-2" x1="91.77" y1="53.82" x2="96.45" y2="78.69"/><line class="cls-2" x1="88.04" y1="52.47" x2="94.39" y2="77.51"/><line class="cls-2" x1="86.45" y1="50.75" x2="92.88" y2="75.55"/></g><g id="Layer_3" data-name="Layer 3"><path class="cls-3" d="M22.13,112s87.38,60.92,189.94-.54l3.24,33.9s-97.94,60.15-193.18-3.16Z" transform="translate(-2.96)"/><path class="cls-4" d="M203.46,107.92l4.34,1.53a27.84,27.84,0,0,1-3.72,2.5Z" transform="translate(-2.96)"/><polygon class="cls-5" points="21.19 108.67 24.77 110.88 24.77 105.9 21.19 108.67"/><path class="cls-6" d="M206.75,104.52s13.67,1.73,18.29-6.93l-3.27,17.33,11.55,6.74-16.19,7.7-2-21.76Z" transform="translate(-2.96)"/><polygon class="cls-7" points="21.19 103.55 15.91 107.94 15.91 127 2.98 119.81 10.97 114.94 9.18 99.94 21.19 103.55"/><path class="cls-8" d="M80.85,152.31l1.58,1c-.09.36-.18.67-.26.93A4.22,4.22,0,0,1,79.63,157a6.3,6.3,0,0,1-4.34-.07q-6.2-2-3.91-9a8.25,8.25,0,0,1,3.56-4.78,6.28,6.28,0,0,1,5.38-.51c3,1,4.05,2.93,3.1,5.83l-2,.22c.15-.4.26-.71.34-.93q1-3.09-1.46-3.9-2.62-.85-4.76,5.69-1.85,5.63,1.08,6.58a2.63,2.63,0,0,0,2.32-.3,3.88,3.88,0,0,0,1.59-2.14A10.82,10.82,0,0,0,80.85,152.31Z" transform="translate(-2.96)"/><path class="cls-8" d="M93.77,161a7.79,7.79,0,0,1-2.86-.07q-2-.45-2.16-1.77a3.28,3.28,0,0,1-3,.66q-3.34-.75-2.65-3.85.53-2.35,3.8-2.63c2-.17,3.1-.66,3.29-1.49a1.47,1.47,0,0,0-1.25-2c-1.25-.28-2,.1-2.22,1.15a4.41,4.41,0,0,0,0,1.37l-1.81-.79a6.27,6.27,0,0,1,.13-.94c.38-1.68,2.09-2.18,5.15-1.49q4.36,1,3.84,3.32l-1.44,6.42c-.14.66,0,1,.42,1.13a1.39,1.39,0,0,0,.64-.09Zm-4.08-7.19a3.34,3.34,0,0,1-1,.49A2.55,2.55,0,0,0,87,156.39c-.31,1.4-.2,2.16.35,2.28.8.18,1.35-.42,1.66-1.8Z" transform="translate(-2.96)"/><path class="cls-8" d="M106.18,152.17l-2.59,2.48,2.12,8.38-4.1-.55-1.22-5-.83.77L99,162.13l-3.89-.53,2-14.53a38.3,38.3,0,0,0,3.92.29l-1.24,9.09,4.83-4.49Z" transform="translate(-2.96)"/><path class="cls-8" d="M115.38,159.58l1.55.54q-.45,3.74-4.62,3.51c-3.6-.18-5.31-2.08-5.12-5.67a6.38,6.38,0,0,1,1.66-4.22,4.63,4.63,0,0,1,3.77-1.48c3.13.16,4.58,2.26,4.37,6.3l-5.71-.3q-.23,4.25,1.94,4.36c1.34.07,2-.7,2.14-2.3C115.37,160.11,115.38,159.86,115.38,159.58Zm-4-2.54,2.33.13c.14-2.52-.18-3.8-.93-3.84s-1.13.88-1.31,2.74Z" transform="translate(-2.96)"/><path class="cls-8" d="M135.1,152.21l-1.95.51a3.91,3.91,0,0,0,0-1q-.19-2.55-3.29-2.31c-1.63.13-2.4.78-2.3,2,.06.88,1,1.56,2.9,2,3.61.93,5.51,2.57,5.7,4.94a4.18,4.18,0,0,1-1.22,3.45,5.87,5.87,0,0,1-3.83,1.57q-5.43.42-5.76-3.78a7.63,7.63,0,0,1,0-.85l2-.61a6.42,6.42,0,0,0-.11,1.63c.14,1.82,1.25,2.64,3.33,2.48q2.49-.21,2.34-2.16c-.08-1-1.14-1.75-3.19-2.33-3-.82-4.53-2.4-4.72-4.72a4,4,0,0,1,1.19-3.29,5.71,5.71,0,0,1,3.69-1.5Q134.76,147.86,135.1,152.21Z" transform="translate(-2.96)"/><path class="cls-8" d="M139,162.37l-2.44-14.46c1.15-.2,2.42-.49,3.83-.88l1,5.84a4,4,0,0,1,3.18-2.7c1.79-.3,2.82.35,3.09,2l1.44,8.54-3.87.65-1.36-8.11c-.1-.62-.36-.89-.77-.82s-.75.53-1,1.38a6.12,6.12,0,0,0-.12,2.63l.89,5.32Z" transform="translate(-2.96)"/><path class="cls-8" d="M154,148.06q5.19-1.34,6.61,4.16c.95,3.66-.32,5.94-3.78,6.83s-5.69-.49-6.63-4.15S150.47,149,154,148.06Zm.22.93c-.84.22-.86,1.85-.08,4.89s1.6,4.46,2.44,4.25.88-1.85.09-4.9S155,148.77,154.17,149Z" transform="translate(-2.96)"/><path class="cls-8" d="M165.38,160.24l-4.74-13.69a33.11,33.11,0,0,0,3.61-1.54l.53,1.54a3.2,3.2,0,0,1,2-2.43,3.1,3.1,0,0,1,3.06.57,7.42,7.42,0,0,1,2.3,3.57q1.88,5.42-1.73,6.66a3.26,3.26,0,0,1-2.82-.27l1.49,4.3Zm.57-14.16q-1.23.42.1,4.24t2.55,3.56c.7-.24.6-1.69-.32-4.33S166.62,145.84,166,146.08Z" transform="translate(-2.96)"/></g><g id="Layer_8" data-name="Layer 8"><path class="cls-9" d="M92.44,124.82a.22.22,0,0,1-.18-.06,13.76,13.76,0,0,0-5.73-1.12,25.62,25.62,0,0,0-7.15,1.12,56.91,56.91,0,0,1-13.24,2.43,5.12,5.12,0,0,1-1.18-.12c-2.18-.71-4.78-7.27-4.78-8.63.17-7.8,19.38-41.77,22.45-41.77,2.24,0,6.08,3.84,6.08,6a1.11,1.11,0,0,1-.29.82c-4.37,4.73-19.2,30.37-21,35.69a13.14,13.14,0,0,0,2.37.18c2.77,0,10.22-1.3,15-1.3a14.1,14.1,0,0,1,5.61.88c1.59.71,2.66,3.55,2.66,4.91C93,124.41,92.73,124.82,92.44,124.82Z" transform="translate(-2.96)"/><path class="cls-9" d="M114.47,121.34c-3,2.83-6.5,4.55-9.69,4.55-2.48,0-7.21-2.19-8.15-4.26a7.34,7.34,0,0,1-.54-3c0-8.21,8.16-16.07,13.42-16.07.29,0,.53.06.82.06,1.6.23,5.26,2.89,5.26,5.14-.29,4.19-4.72,9.16-7.5,9.16a11,11,0,0,1-4.55-1.78,10.33,10.33,0,0,0-.89,4c0,2.13.95,2.84,3.13,2.84,3.14,0,6.5-2.48,10.28-7.33a1.74,1.74,0,0,1,1.3-.77,1.65,1.65,0,0,1,1.54,1.72,1.63,1.63,0,0,1-.24.88A30.89,30.89,0,0,1,114.47,121.34Zm-4.67-14c-.65,0-2.66,1.72-4.49,4.49a3.45,3.45,0,0,0,1.66.59c1.24,0,3.13-3.54,3.13-4.66a.51.51,0,0,0-.12-.36C109.92,107.45,109.86,107.39,109.8,107.39Z" transform="translate(-2.96)"/><path class="cls-9" d="M131.66,125.71c-2.48,0-2.84-2.07-3.9-5.55-5,4.72-6.79,6.79-7.5,7.14a6.42,6.42,0,0,1-2.84.83c-.94,0-1.53-.35-1.53-.88,0-.83,4.9-6.15,10.45-11.7-.82-3-1.47-6-2-6s-5.43,7-6.56,8.09a1.39,1.39,0,0,1-1.06.42,1.64,1.64,0,0,1-1.71-1.54,2.2,2.2,0,0,1,.65-1.42c1.89-2.18,6.85-9.51,7.91-10.28a13.53,13.53,0,0,1,5.2-1.24c1.48,0,2.25,3,3,6.62,5-4.84,6.67-9.1,7.32-9.1a2.62,2.62,0,0,1,1.78,2.48,2,2,0,0,1-.12.59,37.55,37.55,0,0,1-7.86,11c.47,2.25,1.06,5,1.95,5,1.65,0,5-4.49,5.85-5.44a1.82,1.82,0,0,1,1.42-.77,1.58,1.58,0,0,1,1.53,1.6,2.28,2.28,0,0,1-.47,1.36C141.53,119.21,135.2,125.71,131.66,125.71Z" transform="translate(-2.96)"/><path class="cls-9" d="M153.4,123.34c-2.42,1.54-4.84,2.66-7.15,2.66a9.27,9.27,0,0,1-3.25-.53c-1.53-.53-3.9-3.48-3.9-6,0-3.78,8.33-15.66,10.05-16.55a2.29,2.29,0,0,1,.88-.17c2,0,4.38,2.36,4.38,3.78,0,.88-3,4.49-5.91,9.33-1.3,2.13-2.31,4.14-2.31,5.26,0,.71.53,1.12,1.6,1.12s2.83-1.06,4.9-2.66c2.84-2.18,5-5.9,6.5-5.9a1.53,1.53,0,0,1,1.36,1.65,2.54,2.54,0,0,1-.35,1.24A26.07,26.07,0,0,1,153.4,123.34Zm3.6-22.09c-1.89,0-4-2.25-4-3.72,0-2.13,3.13-4.79,4.31-4.79,2.13,0,3.9,1.77,3.9,3.07A6.35,6.35,0,0,1,160,98.94C159,100.42,158.13,101.25,157,101.25Z" transform="translate(-2.96)"/><path class="cls-9" d="M166.1,97.17c-.71,0-1.83-.53-1.83-1.18,0-.12.06-.24.24-.41,2.18-1.89,2.77-3.37,2.77-3.84a.26.26,0,0,0-.06-.18,2.55,2.55,0,0,1-1.77-2.36c0-2,2.6-4,3.55-4,1.71,0,3.31,1.47,3.31,2.54a5.9,5.9,0,0,1-1,2.77C170.47,91.91,167.28,97.17,166.1,97.17Z" transform="translate(-2.96)"/><path class="cls-9" d="M168.7,126.24c-4.25,0-7.33-2-8.63-5.38a1.44,1.44,0,0,1-.7.12,1.68,1.68,0,0,1-1.84-1.48c0-.53,5.62-7.14,7.27-10,1.3-2.19,4-6.91,5.61-6.91.89,0,1.66.88,2.19,1.53.65.83,2.07,1.19,2.07,2.25,0,.71-.95,2.83-.95,4.78,0,3.55,1.77,5.14,2.19,7.8,2-1.24,4.08-5.14,5.43-5.14a1.52,1.52,0,0,1,1.48,1.54,1.81,1.81,0,0,1-.24.94C181.4,118.5,175.44,126.24,168.7,126.24Zm-.59-14.42v-.53c-.83,1-3.37,4.32-5.32,6.74.65,2.48,2.13,3.54,3.43,3.54s2.66-1.18,2.66-3.31a5.58,5.58,0,0,0-.18-1.35A26.8,26.8,0,0,1,168.11,111.82Z" transform="translate(-2.96)"/></g></svg>