<?xml version="1.0" encoding="utf-8"?>
<!-- Generator: Adobe Illustrator 26.0.0, SVG Export Plug-In . SVG Version: 6.00 Build 0)  -->
<svg version="1.1" xmlns="http://www.w3.org/2000/svg" xmlns:xlink="http://www.w3.org/1999/xlink" x="0px" y="0px"
	 viewBox="0 0 240.8 172.7" style="enable-background:new 0 0 240.8 172.7;" xml:space="preserve">
<style type="text/css">
	.st0{fill:url(#SVGID_1_);stroke:#F495BE;stroke-width:2;stroke-miterlimit:10;}
	.st1{fill:none;stroke:#FFFFFF;stroke-width:2;stroke-miterlimit:10;}
	.st2{fill:#FFFFFF;stroke:url(#SVGID_00000072971038414226219850000004718771767869889710_);stroke-width:3;stroke-miterlimit:10;}
	.st3{fill:#FFFFFF;stroke:url(#SVGID_00000052104176096686871280000007112384488018197662_);stroke-width:3;stroke-miterlimit:10;}
	.st4{fill:#FFFFFF;stroke:url(#SVGID_00000124877753931288079880000015469152397947885463_);stroke-width:3;stroke-miterlimit:10;}
	.st5{fill:#FFFFFF;stroke:url(#SVGID_00000013910647245880049700000007021432529293559709_);stroke-width:3;stroke-miterlimit:10;}
	.st6{fill:#FFFFFF;stroke:url(#SVGID_00000146489390741902851440000010415495283485616272_);stroke-width:3;stroke-miterlimit:10;}
	.st7{fill:#F49AC0;}
</style>
<g id="Layer_2">
</g>
<g id="Layer_7">
	<g>
		<linearGradient id="SVGID_1_" gradientUnits="userSpaceOnUse" x1="86.8455" y1="43.8441" x2="153.9293" y2="43.8441">
			<stop  offset="0" style="stop-color:#F9C5DC"/>
			<stop  offset="3.224864e-03" style="stop-color:#F9C4DB"/>
			<stop  offset="6.948832e-02" style="stop-color:#F6AFCE"/>
			<stop  offset="0.1372" style="stop-color:#F5A1C5"/>
			<stop  offset="0.2068" style="stop-color:#F498C0"/>
			<stop  offset="0.2809" style="stop-color:#F495BE"/>
			<stop  offset="0.6685" style="stop-color:#EF72AC"/>
			<stop  offset="0.8876" style="stop-color:#E572A9"/>
			<stop  offset="1" style="stop-color:#C14D84"/>
		</linearGradient>
		<path class="st0" d="M152.7,40.4c0,0,0.1-2-0.2-1.5c0,0,0.7-5-4.8-8.2c0,0-2.1-2.2-3.5-3c-0.8-2.2-2.7-4-2.7-4
			c-6.2-6.6-12.8-4.8-12.8-4.8c-1.8-1.5-4.3-2.6-4.3-2.6l-6.2-5.5c-0.9-1.1-2.2-2.2-3.3-3.2h0c-1.9-1.6-3.6-2.7-3.6-2.7c0,0,0,0,0,0
			c0.5,0.5,0.9,1,1.4,1.5v0l-0.1,1.2c-0.3-0.8-0.7-1.7-1.2-2.7c0.1,0.2,0.8,2.4,1,5.2v0l-0.5,4.6c-0.2,0.6-0.4,1.2-0.7,1.7
			c0,0-1.1,0.3-1.1,2.4c0,0,0.7,2.1,1.2,2.3l-2.2,0.6l-1.8,0.8c0.6,0,1.1,0.1,1.7,0.2l-0.5,0.4l-1.2-0.6c-1,0-1.9,0.1-2.6,0.3
			l4.4-1.1c0,0-0.9-0.6-2.5-1c0,0-2.1-0.6-2.3-1c0,0-0.7-0.2-1.1,1l-0.5,1.4l-1.8,1.6l2.9-0.7c-0.4,0.1-0.7,0.2-0.7,0.2
			c-0.2,0.1-1.1,0.3-2.2,0.5h0c-1.8,0.3-4,0.6-4,0.6c-3.7,0.7-2.3,2.4-2.3,2.4c1.7,1.9,2.3,2.9,2.3,2.9c-1.4-0.4-3.2,0-3.2,0
			c-0.9,0.6,0.3,2.5,0.3,2.5c-1.4-1.7-2.9,0-2.9,0c-0.1,1.5,1.7,4.9,1.7,4.9c-3.6,0.3-3.6,4.1-3.6,4.1c-1,0.9-1.5,1.8-1.6,2.6
			c-0.2,1.4,0.5,2.3,0.5,2.3c-1,1-1,1.1-1,1.1l0.6,1.8l-0.1,0c0,0.1,0.1,0.2,0.2,0.2L91,59.9c3.1,16.5,4.9,15.4,4.9,15.4
			c0,0.4,1,1.3,1,1.3c0,0.2,0.2,0.5,0.5,0.7v0c0.8,0.6,2.1,1.2,2.1,1.2c0.6,0.6,1.7,0.9,1.7,0.9c0,0.1,0.3,0.3,0.7,0.4
			c0.9,0.4,2.2,0.8,2.2,0.8c0.1,0.1,0.4,0.2,0.7,0.3c0.9,0.3,2.5,0.6,2.5,0.6c0.2,0.3,2.9,0.5,2.9,0.5c2.1,0.8,4.8,0.5,4.8,0.5
			c0.4,0.1,0.7,0.2,1.1,0.2c1.4,0.2,2.7-0.1,2.7-0.1c0.5,0.1,1.1,0.2,1.7,0.2c1.6,0,3.5-0.2,5-0.4c1.6-0.2,2.8-0.5,2.8-0.5
			c0.4-0.1,0.8-0.1,1.3-0.2c1.2-0.2,2.5-0.6,3.5-0.8c1.2-0.3,2-0.6,2-0.6c0.1,0,0.2-0.1,0.3-0.1c1.3-0.5,3.2-1.6,3.2-1.6
			c1.4-0.8,1.9-1.3,2.1-1.7c0.1-0.3,0.4-0.5,0.7-0.7c0.9-0.4,1.2-1.2,1.3-1.7c0.1-0.3,0.2-0.5,0.4-0.7c2-2.3,2.6-5,2.6-5l5.8-17.9
			c0.7-1.2,0.3-1.9,0.3-1.9c0.6-1.3,0-1.5,0-1.5c0.9-2.1,0-2.7,0-2.7c1.4-0.2,2.1-2.3,2.1-2.3C154.6,41.2,152.7,40.4,152.7,40.4z
			 M125.8,31.9l-0.5-0.2c0.2,0,0.4,0,0.6,0L125.8,31.9z"/>
		<path class="st1" d="M111.3,5.2c0,0,4.5,2.9,6.9,5.9l6.2,5.5c0,0,5.2,2.3,6,4.8c0.8,2.5,0.8,2.5,0.8,2.5s1.6,3.9-4.2,8.1
			c0,0-9.2,0.1-10.5,2c0,0-6-0.9-7.7,1.3c0,0-6.5-0.1-6.6,1.8c0,0-5.5-3.2-8.3-1.2c0,0,22.9-10.8,23.4-10c0,0,3.4-2,3.5-0.3l1.7-1.4
			C122.5,24,125.3,20.1,111.3,5.2z"/>
		<line class="st1" x1="111.5" y1="23.5" x2="117.3" y2="25.7"/>
		<path class="st1" d="M92.5,37.3c0,0,1.3,2.5,3,1.9c0,0,1.7-0.3,2.3,0.8c0,0,3.4,0.3,5.1,1.9l-5.2,0.9"/>
		<path class="st1" d="M102.9,41.9c0,0,15.3-5.5,18.3-5.6c0,0,16.4-0.6,15.3-8.9c0,0-0.5-6.7-5.9-5.2l-2-3.1c0,0,6.6-1.8,12.8,4.8
			c0,0,5.5,5.2,1.6,8.9c0,0-3.6,4.8-4.6,5.1c0,0-2.7,0.9-2.7,2.1c0,0-7.3,3.6-12.1,3.9l-10.2,1.9c0,0-5.3-2.3-6.7,0.5
			c0,0-1.2,3.4-0.4,5.5c0,0,1,2.8,5.8,0.7l0.5-1"/>
		<path class="st1" d="M108.4,49.9c0,0,1.7-0.2,3.1,1.1c0,0,3.4,1.8,7.7,0.3c0,0,3.3-1.3,5.8-2.8c0.9-0.5,1.6-1.1,2.1-1.7
			c0.1-0.1,0.2-0.3,0.3-0.4"/>
		<path class="st1" d="M106.4,47.5c0,0-4.5-0.9-8.7-2.3c0,0-5.5-3.4-7.5-1.5"/>
		<path class="st1" d="M87.3,44c0,0,1.1,0.8,3.6,0.9c0,0,4.5,0.4,4.6,0.1"/>
		<path class="st1" d="M95.6,44c0,0,0,1.8-0.4,3.9c0,0,1.9,1,4.3,2.2c0,0,3.4-0.3,4.5,0c0,0,1.3,0.6,2.1,0.7"/>
		<path class="st1" d="M129.5,50.7l-2,0.9c-3.6,1.7-6.9,1.6-6.9,1.6c-0.5,0.1-2.4-1.6-2.4-1.6"/>
		<path class="st1" d="M143.8,31.9c0,0-1,5.4,1.2,8.1c0,0-11.8,6.7-14.6,6.5c0,0-3.9,1.7-5.4,2.1"/>
		<path class="st1" d="M125.4,48.4c0,0,3.4,0.8,4.5,2.8c0,0,1.5,0.5,2,1.1c0.2,0.3,0.5,0.5,0.9,0.6c0.3,0.1,0.7,0.2,1.1,0.4
			c0,0,0.4,0.7,1.5-0.6c0,0,1.3-1.4,3.4-1.4c0,0,6.2-0.8,10.8-4.7c0,0,2.6-2,3-5.9c0,0,0.1-2-0.2-1.5c0,0,0.7-5-4.8-8.2
			c0,0-2.1-2.2-3.5-3"/>
		<path class="st1" d="M107.2,81.7c0,0-2.7-0.5-3.1-0.9c0,0-2.9-0.9-3-1.2c0,0-1-0.3-1.7-0.9c0,0-2.6-1.2-2.6-1.9c0,0-1-0.8-1-1.3
			c0,0-1.7,1-4.9-15.4l-4.2-12.7c0,0,0-0.2,1-1.1c0,0-1.7-2.3,1.1-4.9c0,0,0.1-3.8,3.6-4.1c0,0-1.8-3.4-1.7-4.9c0,0,1.6-1.7,2.9,0
			c0,0-1.2-1.9-0.3-2.5c0,0,1.8-0.4,3.2,0c0,0-0.6-1-2.3-2.9c0,0-1.4-1.7,2.3-2.4c0,0,5.7-0.7,6.2-1c0,0,2-0.8,4.3-0.7
			c1,0,2.1,0.2,3,0.7l3.3,0.7c0,0-4.9,0.2-0.5-8c0,0,2.1-4.3-1.6-11c0,0,2.4,6.8-0.3,11.5c0,0-1.1,0.3-1.1,2.4c0,0,0.7,2.1,1.2,2.3
			l-2.2,0.6l-1.8,0.8"/>
		<path class="st1" d="M151.6,45.1c0,0,0.9,0.5,0,2.7c0,0,0.6,0.2,0,1.5c0,0,0.4,0.7-0.3,1.9L145.5,69c0,0-0.6,2.7-2.6,5
			c-0.2,0.2-0.3,0.4-0.4,0.7c-0.1,0.5-0.4,1.3-1.3,1.7c-0.3,0.1-0.5,0.4-0.7,0.7c-0.2,0.4-0.7,1-2.1,1.7c0,0-2.3,1.2-3.5,1.7
			c0,0-4.2,1.2-6.8,1.6"/>
		<path class="st1" d="M108.9,22c0,0-0.9-0.6-2.5-1c0,0-2.1-0.6-2.3-1c0,0-0.7-0.2-1.1,1l-0.5,1.4l-1.8,1.6"/>
		<path class="st1" d="M151.3,51.1l-0.8-1c0,0-0.7,0.3-0.6,1.2c0,0,0.9,0.5-0.5,1.1c0,0-1.1,0.5-1.4,0.5c0,0-1,1.6-3.8,1.3
			c0,0,0.2,1.6-3.1,0.5c0,0-0.7,0.1,0,1.1c0,0,0.4,1.4-3.2,0c0,0-1.3-0.2-1.1,1c0,0,0.1,1.8-2,0c0,0-2.3-0.8-2.6,0.8
			c0,0-0.4,1.7-3-0.6c0,0-1.2-1.2-2.5,1.6c0,0-0.6,0.4-2.7-1.5c0,0-1.5,0.3-2,1.8c0,0-0.4,0.1-2.5-1.1c0,0-1.4-0.2-2.1,1.8
			c0,0-1.5,0.1-2.4-2c0,0-1.9-0.8-3.4,0.8c0,0-0.5,0.2-1.6-1.1c0,0-1.4-1.3-2.9,0.3c0,0-1.3,0.4-0.9-1.2c0,0-1.8-1.2-3.9,0.4
			c0,0-1-0.1,0-1.3c0,0-1.3-1.9-2.7-0.1c0,0-1.4,0.6-1.2-1c0,0-1.7-1.4-2.3-0.2c0,0-1.4,0.2-1.4-1.2c0,0-0.5-1.3-3.2-0.7
			c0,0-1,0.1,0-0.8c0,0,0.7-0.2,0.6-1c0,0-0.4-0.5-1.8,0.5c0,0-2-0.3,0-1.4c0,0-0.1-1.6-1.3-0.7c0,0-1.6,0.5-1.6,0"/>
		<line class="st1" x1="150.1" y1="51.9" x2="143.5" y2="73.3"/>
		<line class="st1" x1="147.9" y1="52.9" x2="141.3" y2="76.4"/>
		<line class="st1" x1="144.1" y1="54.2" x2="138.6" y2="78.8"/>
		<line class="st1" x1="140.9" y1="56.3" x2="135.4" y2="80.4"/>
		<line class="st1" x1="136.6" y1="57.3" x2="133.1" y2="81.1"/>
		<path class="st1" d="M106.1,81.3c0,0,7.6,3.3,23.4,0.6l2.7-24.6"/>
		<line class="st1" x1="128.3" y1="56.9" x2="125.4" y2="82.6"/>
		<line class="st1" x1="123.9" y1="57.2" x2="123.2" y2="82.8"/>
		<line class="st1" x1="119.4" y1="58" x2="120.3" y2="83"/>
		<line class="st1" x1="117.3" y1="59.8" x2="117.9" y2="82.8"/>
		<line class="st1" x1="114.9" y1="57.8" x2="116" y2="83"/>
		<line class="st1" x1="110.4" y1="58" x2="112.6" y2="82.6"/>
		<line class="st1" x1="106.1" y1="57.6" x2="108.9" y2="82.1"/>
		<line class="st1" x1="101.8" y1="56.9" x2="104.8" y2="81.2"/>
		<path class="st1" d="M98.4,54.6c0,0-0.6,1.6,3.5,25.4"/>
		<line class="st1" x1="94.7" y1="53.8" x2="99.4" y2="78.7"/>
		<line class="st1" x1="91" y1="52.5" x2="97.4" y2="77.5"/>
		<line class="st1" x1="89.4" y1="50.7" x2="95.8" y2="75.6"/>
	</g>
</g>
<g id="Layer_3">
	
		<linearGradient id="SVGID_00000183932883337951969850000017269345833354459540_" gradientUnits="userSpaceOnUse" x1="20.6253" y1="140.826" x2="216.8903" y2="140.826">
		<stop  offset="0" style="stop-color:#F9C5DC"/>
		<stop  offset="3.224864e-03" style="stop-color:#F9C4DB"/>
		<stop  offset="6.948832e-02" style="stop-color:#F6AFCE"/>
		<stop  offset="0.1372" style="stop-color:#F5A1C5"/>
		<stop  offset="0.2068" style="stop-color:#F498C0"/>
		<stop  offset="0.2809" style="stop-color:#F495BE"/>
		<stop  offset="0.6685" style="stop-color:#EF72AC"/>
		<stop  offset="0.8876" style="stop-color:#E572A9"/>
		<stop  offset="1" style="stop-color:#C14D84"/>
	</linearGradient>
	
		<path style="fill:#FFFFFF;stroke:url(#SVGID_00000183932883337951969850000017269345833354459540_);stroke-width:3;stroke-miterlimit:10;" d="
		M22.1,112c0,0,87.4,60.9,189.9-0.5l3.2,33.9c0,0-97.9,60.1-193.2-3.2V112z"/>
	
		<linearGradient id="SVGID_00000060024106771433614470000004074799334347903897_" gradientUnits="userSpaceOnUse" x1="201.5987" y1="109.9821" x2="210.8135" y2="109.9821">
		<stop  offset="0" style="stop-color:#F9C5DC"/>
		<stop  offset="3.224864e-03" style="stop-color:#F9C4DB"/>
		<stop  offset="6.948832e-02" style="stop-color:#F6AFCE"/>
		<stop  offset="0.1372" style="stop-color:#F5A1C5"/>
		<stop  offset="0.2068" style="stop-color:#F498C0"/>
		<stop  offset="0.2809" style="stop-color:#F495BE"/>
		<stop  offset="0.6685" style="stop-color:#EF72AC"/>
		<stop  offset="0.8876" style="stop-color:#E572A9"/>
		<stop  offset="1" style="stop-color:#C14D84"/>
	</linearGradient>
	
		<path style="fill:#FFFFFF;stroke:url(#SVGID_00000060024106771433614470000004074799334347903897_);stroke-width:3;stroke-miterlimit:10;" d="
		M203.5,107.9l4.3,1.5c0,0-1.7,1.4-3.7,2.5L203.5,107.9z"/>
	
		<linearGradient id="SVGID_00000134930590131506280590000006085620458218380712_" gradientUnits="userSpaceOnUse" x1="21.5231" y1="108.2113" x2="29.2275" y2="108.2113">
		<stop  offset="0" style="stop-color:#F9C5DC"/>
		<stop  offset="3.224864e-03" style="stop-color:#F9C4DB"/>
		<stop  offset="6.948832e-02" style="stop-color:#F6AFCE"/>
		<stop  offset="0.1372" style="stop-color:#F5A1C5"/>
		<stop  offset="0.2068" style="stop-color:#F498C0"/>
		<stop  offset="0.2809" style="stop-color:#F495BE"/>
		<stop  offset="0.6685" style="stop-color:#EF72AC"/>
		<stop  offset="0.8876" style="stop-color:#E572A9"/>
		<stop  offset="1" style="stop-color:#C14D84"/>
	</linearGradient>
	
		<polygon style="fill:#FFFFFF;stroke:url(#SVGID_00000134930590131506280590000006085620458218380712_);stroke-width:3;stroke-miterlimit:10;" points="
		24.2,108.7 27.7,110.9 27.7,105.9 	"/>
	
		<linearGradient id="SVGID_00000090282202603455379260000017430813261460945319_" gradientUnits="userSpaceOnUse" x1="193.7717" y1="109.9297" x2="236.5325" y2="109.9297">
		<stop  offset="0" style="stop-color:#F9C5DC"/>
		<stop  offset="3.224864e-03" style="stop-color:#F9C4DB"/>
		<stop  offset="6.948832e-02" style="stop-color:#F6AFCE"/>
		<stop  offset="0.1372" style="stop-color:#F5A1C5"/>
		<stop  offset="0.2068" style="stop-color:#F498C0"/>
		<stop  offset="0.2809" style="stop-color:#F495BE"/>
		<stop  offset="0.6685" style="stop-color:#EF72AC"/>
		<stop  offset="0.8876" style="stop-color:#E572A9"/>
		<stop  offset="1" style="stop-color:#C14D84"/>
	</linearGradient>
	
		<path style="fill:#FFFFFF;stroke:url(#SVGID_00000090282202603455379260000017430813261460945319_);stroke-width:3;stroke-miterlimit:10;" d="
		M206.8,104.5c0,0,13.7,1.7,18.3-6.9l-3.3,17.3l11.6,6.7l-16.2,7.7l-2-21.8L206.8,104.5z"/>
	
		<linearGradient id="SVGID_00000044882515832890839320000011733698748284367544_" gradientUnits="userSpaceOnUse" x1="2.9611" y1="113.7019" x2="27.2578" y2="113.7019">
		<stop  offset="0" style="stop-color:#F9C5DC"/>
		<stop  offset="3.224864e-03" style="stop-color:#F9C4DB"/>
		<stop  offset="6.948832e-02" style="stop-color:#F6AFCE"/>
		<stop  offset="0.1372" style="stop-color:#F5A1C5"/>
		<stop  offset="0.2068" style="stop-color:#F498C0"/>
		<stop  offset="0.2809" style="stop-color:#F495BE"/>
		<stop  offset="0.6685" style="stop-color:#EF72AC"/>
		<stop  offset="0.8876" style="stop-color:#E572A9"/>
		<stop  offset="1" style="stop-color:#C14D84"/>
	</linearGradient>
	
		<polygon style="fill:#FFFFFF;stroke:url(#SVGID_00000044882515832890839320000011733698748284367544_);stroke-width:3;stroke-miterlimit:10;" points="
		24.2,103.6 18.9,107.9 18.9,127 5.9,119.8 13.9,114.9 12.1,99.9 	"/>
	<g>
		<path d="M72.8,151.9c-1.5,2.3-4,3.5-7.4,2.3c-4.3-1.5-5.3-5.3-3.9-9.2c1.3-3.7,4.6-6.3,9-4.8c3.6,1.3,4.6,4.1,4.2,6.5l-2.9-1.1
			c0.1-1.2-0.3-2.5-2.1-3.1c-2.4-0.9-4.1,1-5,3.5c-0.8,2.3-0.9,5,1.8,6c1.9,0.7,3-0.4,3.5-1.1L72.8,151.9z"/>
		<path d="M77.9,154.4l-1.9,3l-3-0.7l8.2-12.9l3.8,0.9l1.5,15.3l-3.2-0.8l-0.4-3.5L77.9,154.4z M83,153c-0.3-3.2-0.4-5.3-0.5-6.6
			l0,0c-0.7,1.3-1.9,3.3-3.3,5.7L83,153z"/>
		<path d="M91.4,146.1l3.1,0.5l-1,6.4c1.1-1,4.5-3.7,6.7-5.5l3.7,0.6l-6.7,5.1l4.7,9.3l-3.7-0.6l-3.4-7l-1.7,1.2l-0.7,4.9l-3.1-0.5
			L91.4,146.1z"/>
		<path d="M114.6,156.9l-6.9-0.5l-0.2,3.7l7.6,0.5l-0.5,2.5l-10.3-0.7l0.9-14.4l10.2,0.7l-0.2,2.6l-7.2-0.5l-0.2,3.1l6.9,0.5
			L114.6,156.9z"/>
		<path d="M125.2,158.9c0.4,1.4,1.5,2,3.1,1.9c1.7-0.1,2.4-0.8,2.3-1.8c-0.1-1.2-0.8-1.7-3.3-2.1c-4-0.7-5-2.1-5.1-4.1
			c-0.1-2.5,1.7-4.3,5.1-4.5c3.8-0.2,5.5,1.8,5.8,3.9l-3.2,0.2c-0.2-0.9-0.7-1.8-2.6-1.7c-1.3,0.1-2,0.6-2,1.6c0,1,0.7,1.4,3,1.8
			c4.3,0.8,5.3,2.3,5.3,4.3c0.1,2.6-1.8,4.5-5.6,4.7c-3.7,0.2-5.7-1.5-6.2-4.2L125.2,158.9z"/>
		<path d="M135.2,148.1l3.1-0.4l0.8,5.6l5.8-0.8l-0.8-5.6l3.1-0.4l2,14.3l-3.1,0.4l-0.9-6.2l-5.8,0.8l0.9,6.2l-3.1,0.4L135.2,148.1z
			"/>
		<path d="M164.7,149.7c0.9,3.9-0.6,7.9-5.2,9c-4.4,1.1-7.5-1.6-8.5-5.6c-1-4.1,0.8-7.9,5.2-8.9
			C160.3,143.2,163.6,145.4,164.7,149.7z M154.2,152.3c0.7,2.7,2.4,4.5,4.9,3.9c2.7-0.7,3.1-3.2,2.5-5.7c-0.6-2.7-2.2-4.5-4.9-3.9
			C154.1,147.3,153.5,149.5,154.2,152.3z"/>
		<path d="M165.1,142l5.7-1.9c2.9-1,5.4,0,6.3,2.6c1,3-0.8,5.1-3.5,6l-2.6,0.9l1.8,5.1l-3,1L165.1,142z M170.2,147.2l2.3-0.8
			c1.4-0.5,2.2-1.3,1.7-2.7c-0.5-1.4-1.7-1.6-2.9-1.2l-2.3,0.8L170.2,147.2z"/>
	</g>
</g>
<g id="Layer_6">
</g>
<g id="Layer_8">
	<g>
		<path class="st7" d="M92.4,124.8c-0.1,0-0.1,0-0.2-0.1c-1.7-0.8-3.6-1.1-5.7-1.1c-2.3,0-4.7,0.4-7.1,1.1
			c-5.5,1.6-10.8,2.4-13.2,2.4c-0.5,0-0.9-0.1-1.2-0.1c-2.2-0.7-4.8-7.3-4.8-8.6c0.2-7.8,19.4-41.8,22.5-41.8c2.2,0,6.1,3.8,6.1,6
			c0,0.3-0.1,0.6-0.3,0.8c-4.4,4.7-19.2,30.4-21,35.7c0.6,0.1,1.4,0.2,2.4,0.2c2.8,0,10.2-1.3,14.9-1.3c2.5,0,4.3,0.3,5.6,0.9
			c1.6,0.7,2.7,3.5,2.7,4.9C93,124.4,92.7,124.8,92.4,124.8z"/>
		<path class="st7" d="M114.5,121.3c-3,2.8-6.5,4.5-9.7,4.5c-2.5,0-7.2-2.2-8.2-4.3c-0.4-0.8-0.5-1.8-0.5-3
			c0-8.2,8.2-16.1,13.4-16.1c0.3,0,0.5,0.1,0.8,0.1c1.6,0.2,5.3,2.9,5.3,5.1c-0.3,4.2-4.7,9.2-7.5,9.2c-1.2,0-3.2-0.9-4.5-1.8
			c-0.7,1.7-0.9,3-0.9,4c0,2.1,0.9,2.8,3.1,2.8c3.1,0,6.5-2.5,10.3-7.3c0.4-0.5,0.9-0.8,1.3-0.8c0.8,0,1.5,0.8,1.5,1.7
			c0,0.3-0.1,0.6-0.2,0.9C118.4,116.9,116.7,119.2,114.5,121.3z M109.8,107.4c-0.6,0-2.7,1.7-4.5,4.5c0.5,0.4,1.2,0.6,1.7,0.6
			c1.2,0,3.1-3.5,3.1-4.7c0-0.2-0.1-0.3-0.1-0.4C109.9,107.5,109.9,107.4,109.8,107.4z"/>
		<path class="st7" d="M131.7,125.7c-2.5,0-2.8-2.1-3.9-5.6c-5,4.7-6.8,6.8-7.5,7.1c-1.2,0.6-2.1,0.8-2.8,0.8
			c-0.9,0-1.5-0.4-1.5-0.9c0-0.8,4.9-6.1,10.5-11.7c-0.8-3-1.5-6-1.9-6c-0.5,0.1-5.4,7-6.6,8.1c-0.3,0.3-0.6,0.4-1.1,0.4
			c-0.8,0-1.7-0.6-1.7-1.5c0-0.4,0.2-0.9,0.6-1.4c1.9-2.2,6.9-9.5,7.9-10.3c0.8-0.6,3.8-1.2,5.2-1.2c1.5,0,2.2,3,3,6.6
			c5-4.8,6.7-9.1,7.3-9.1c1.2,0.4,1.8,1.5,1.8,2.5c0,0.2-0.1,0.4-0.1,0.6c-0.2,0.5-2.7,6-7.9,11c0.5,2.2,1.1,5,2,5
			c1.7,0,5-4.5,5.8-5.4c0.4-0.5,0.9-0.8,1.4-0.8c0.8,0,1.5,0.7,1.5,1.6c0,0.4-0.1,0.9-0.5,1.4C141.5,119.2,135.2,125.7,131.7,125.7z
			"/>
		<path class="st7" d="M153.4,123.3c-2.4,1.5-4.8,2.7-7.1,2.7c-1.2,0-2.3-0.2-3.2-0.5c-1.5-0.5-3.9-3.5-3.9-6
			c0-3.8,8.3-15.7,10-16.5c0.3-0.1,0.6-0.2,0.9-0.2c2,0,4.4,2.4,4.4,3.8c0,0.9-3,4.5-5.9,9.3c-1.3,2.1-2.3,4.1-2.3,5.3
			c0,0.7,0.5,1.1,1.6,1.1c1.2,0,2.8-1.1,4.9-2.7c2.8-2.2,5-5.9,6.5-5.9c0.8,0,1.4,0.8,1.4,1.7c0,0.4-0.1,0.8-0.4,1.2
			C159.3,118,156.2,121.6,153.4,123.3z M157,101.2c-1.9,0-4-2.2-4-3.7c0-2.1,3.1-4.8,4.3-4.8c2.1,0,3.9,1.8,3.9,3.1
			c0,1.1-0.6,2.2-1.2,3.1C159,100.4,158.1,101.2,157,101.2z"/>
		<path class="st7" d="M166.1,97.2c-0.7,0-1.8-0.5-1.8-1.2c0-0.1,0.1-0.2,0.2-0.4c2.2-1.9,2.8-3.4,2.8-3.8c0-0.1-0.1-0.2-0.1-0.2
			c-1.2-0.5-1.8-1.4-1.8-2.4c0-2,2.6-4,3.5-4c1.7,0,3.3,1.5,3.3,2.5c0,0.9-0.5,1.9-1,2.8C170.5,91.9,167.3,97.2,166.1,97.2z"/>
		<path class="st7" d="M168.7,126.2c-4.3,0-7.3-2-8.6-5.4c-0.2,0.1-0.5,0.1-0.7,0.1c-1,0-1.8-0.6-1.8-1.5c0-0.5,5.6-7.1,7.3-10
			c1.3-2.2,4-6.9,5.6-6.9c0.9,0,1.7,0.9,2.2,1.5c0.6,0.8,2.1,1.2,2.1,2.2c0,0.7-0.9,2.8-0.9,4.8c0,3.5,1.8,5.1,2.2,7.8
			c2-1.2,4.1-5.1,5.4-5.1c0.8,0,1.5,0.7,1.5,1.5c0,0.3-0.1,0.6-0.2,0.9C181.4,118.5,175.4,126.2,168.7,126.2z M168.1,111.8
			c0-0.2,0-0.4,0-0.5c-0.8,1-3.4,4.3-5.3,6.7c0.6,2.5,2.1,3.5,3.4,3.5c1.4,0,2.7-1.2,2.7-3.3c0-0.4-0.1-0.9-0.2-1.4
			C168.3,115.2,168.1,113.4,168.1,111.8z"/>
	</g>
</g>
</svg>
